<svg id="Layer_1" data-name="Layer 1" xmlns="http://www.w3.org/2000/svg" width="233.0543" height="101.0683" viewBox="0 0 233.0543 101.0683"><defs><style>.cls-1{fill:#0083c3;}.cls-2{fill:#8c9a9a;}.cls-3{fill:#035677;}.cls-4{fill:#555a5a;}</style></defs><path class="cls-1" d="M104.4082,20.0488a8.5622,8.5622,0,0,1,0,15.7588,14.0229,14.0229,0,0,1-5.74,1.0869h-3.43v5.8418H87.2231V18.9619H98.6685A14.0394,14.0394,0,0,1,104.4082,20.0488Zm-3.8037,9.9346a2.6164,2.6164,0,0,0,.8149-2.0552,2.6167,2.6167,0,0,0-.8149-2.0547,3.5687,3.5687,0,0,0-2.4453-.73H95.2383v5.57h2.9209A3.5662,3.5662,0,0,0,100.6045,29.9834Z" transform="translate(-3.9789 -3.0264)"/><path class="cls-1" d="M130.6445,25.8906q2.0889,2.0721,2.0889,6.249V42.7363h-7.6758V33.4644q0-3.192-2.2754-3.1924a2.6591,2.6591,0,0,0-2.0888.9,4.2,4.2,0,0,0-.7979,2.8359v8.7285H112.22V17.5356h7.6758v8.1172a7.7594,7.7594,0,0,1,5.23-1.834A7.4967,7.4967,0,0,1,130.6445,25.8906Z" transform="translate(-3.9789 -3.0264)"/><path class="cls-1" d="M140.6636,41.8364a9.5353,9.5353,0,0,1-3.8545-3.43,9.5856,9.5856,0,0,1,0-9.9516,9.4169,9.4169,0,0,1,3.8545-3.4131,13.2985,13.2985,0,0,1,11.14,0,9.3067,9.3067,0,0,1,3.8379,3.4131,9.6876,9.6876,0,0,1,0,9.9516,9.4229,9.4229,0,0,1-3.8379,3.43,13.1321,13.1321,0,0,1-11.14,0ZM148.39,36.13a3.9587,3.9587,0,0,0,.8492-2.7,3.8925,3.8925,0,0,0-.8492-2.6831,2.9589,2.9589,0,0,0-4.3471,0,3.8905,3.8905,0,0,0-.8492,2.6831,3.9567,3.9567,0,0,0,.8492,2.7,2.9238,2.9238,0,0,0,4.3471,0Z" transform="translate(-3.9789 -3.0264)"/><path class="cls-1" d="M179.0938,35.2305H166.187a3.123,3.123,0,0,0,1.3584,1.6133,4.619,4.619,0,0,0,2.3775.56,6.0076,6.0076,0,0,0,2.0546-.3057,7.21,7.21,0,0,0,1.8169-1.0532l4.0083,4.042q-2.718,2.989-8.1176,2.9888a13.3476,13.3476,0,0,1-5.91-1.24,9.3756,9.3756,0,0,1-3.9395-3.4472,9.6063,9.6063,0,0,1-.0171-9.9346,9.4,9.4,0,0,1,3.77-3.4131,12.4172,12.4172,0,0,1,10.5283-.102,8.8307,8.8307,0,0,1,3.7012,3.2944,9.51,9.51,0,0,1,1.3769,5.1968C179.1953,33.5439,179.16,34.1436,179.0938,35.2305ZM167.07,29.6943a3.064,3.064,0,0,0-1.019,1.834h5.9775a3.1228,3.1228,0,0,0-1.0185-1.8169,2.9432,2.9432,0,0,0-1.97-.6621A2.9916,2.9916,0,0,0,167.07,29.6943Z" transform="translate(-3.9789 -3.0264)"/><path class="cls-1" d="M200.0312,25.8906q2.0889,2.0721,2.0889,6.249V42.7363h-7.6758V33.4644q0-3.192-2.2754-3.1924a2.66,2.66,0,0,0-2.0888.9,4.2,4.2,0,0,0-.7979,2.8359v8.7285h-7.6758V24.1587h7.3018v1.834a7.0834,7.0834,0,0,1,2.5137-1.63,8.6185,8.6185,0,0,1,3.0908-.5435A7.4963,7.4963,0,0,1,200.0312,25.8906Z" transform="translate(-3.9789 -3.0264)"/><path class="cls-1" d="M205.94,21.5605a3.7195,3.7195,0,0,1,0-5.604,4.9274,4.9274,0,0,1,3.3457-1.104,5.0712,5.0712,0,0,1,3.3623,1.0528,3.3849,3.3849,0,0,1,1.2569,2.7173,3.7451,3.7451,0,0,1-1.2569,2.9038,4.8185,4.8185,0,0,1-3.3623,1.1377A4.9267,4.9267,0,0,1,205.94,21.5605Zm-.4922,2.5982h7.6758V42.7363h-7.6758Z" transform="translate(-3.9789 -3.0264)"/><path class="cls-1" d="M228.2363,42.7363,225.69,38.7627l-2.8526,3.9736h-8.3213l7.03-9.2041L214.72,24.1587h8.66l2.6494,3.9394,2.7852-3.9394h8.0488l-6.8262,9.0342,6.9961,9.5434Z" transform="translate(-3.9789 -3.0264)"/><path class="cls-1" d="M92.7251,73.7725a11.801,11.801,0,0,1-4.7378-4.4151,12.932,12.932,0,0,1,0-12.872A11.8065,11.8065,0,0,1,92.7251,52.07a14.4466,14.4466,0,0,1,6.7925-1.5791,14.9051,14.9051,0,0,1,6.1811,1.2227,11.4732,11.4732,0,0,1,4.4834,3.5322l-5.0605,4.5166a6.4939,6.4939,0,0,0-5.1963-2.7852,5.3079,5.3079,0,0,0-4.0415,1.6133,6.9,6.9,0,0,0,0,8.6612,5.3082,5.3082,0,0,0,4.0415,1.6132,6.494,6.494,0,0,0,5.1963-2.7851l5.0605,4.5166a11.465,11.465,0,0,1-4.4834,3.5322,14.9066,14.9066,0,0,1-6.1811,1.2227A14.4466,14.4466,0,0,1,92.7251,73.7725Z" transform="translate(-3.9789 -3.0264)"/><path class="cls-1" d="M116.0063,73.9082a9.5346,9.5346,0,0,1-3.8544-3.43,9.5849,9.5849,0,0,1,0-9.9512,9.4066,9.4066,0,0,1,3.8544-3.413,13.2987,13.2987,0,0,1,11.14,0,9.2968,9.2968,0,0,1,3.8379,3.413,9.6869,9.6869,0,0,1,0,9.9512,9.4225,9.4225,0,0,1-3.8379,3.43,13.1285,13.1285,0,0,1-11.14,0Zm7.7266-5.7051a3.9614,3.9614,0,0,0,.8491-2.7,3.8955,3.8955,0,0,0-.8491-2.6836,2.9593,2.9593,0,0,0-4.3472,0,3.8931,3.8931,0,0,0-.8491,2.6836,3.9589,3.9589,0,0,0,.8491,2.7,2.9248,2.9248,0,0,0,4.3472,0Z" transform="translate(-3.9789 -3.0264)"/><path class="cls-1" d="M155.3188,49.6079V74.8086h-7.3022V73.28a6.48,6.48,0,0,1-5.0947,1.8681,8.9263,8.9263,0,0,1-4.5-1.1718,8.443,8.443,0,0,1-3.26-3.38,11.3272,11.3272,0,0,1,0-10.1719,8.4769,8.4769,0,0,1,3.26-3.3623,8.9246,8.9246,0,0,1,4.5-1.1709,6.479,6.479,0,0,1,4.7212,1.5957V49.6079ZM146.93,68.2031a3.9614,3.9614,0,0,0,.8491-2.7,3.8955,3.8955,0,0,0-.8491-2.6836,2.9593,2.9593,0,0,0-4.3472,0,3.8931,3.8931,0,0,0-.8491,2.6836,3.9589,3.9589,0,0,0,.8491,2.7,2.9248,2.9248,0,0,0,4.3472,0Z" transform="translate(-3.9789 -3.0264)"/><path class="cls-1" d="M159.2065,53.6328a3.7195,3.7195,0,0,1,0-5.604,4.9276,4.9276,0,0,1,3.3457-1.104,5.072,5.072,0,0,1,3.3624,1.0527,3.3833,3.3833,0,0,1,1.2563,2.7173,3.7431,3.7431,0,0,1-1.2563,2.9038,4.8188,4.8188,0,0,1-3.3624,1.1377A4.9249,4.9249,0,0,1,159.2065,53.6328Zm-.4921,2.5977H166.39V74.8086h-7.6757Z" transform="translate(-3.9789 -3.0264)"/><path class="cls-1" d="M188.2109,57.9629q2.0889,2.0714,2.0889,6.249V74.8086H182.624V65.5371q0-3.1933-2.2754-3.1933a2.6608,2.6608,0,0,0-2.0888.9,4.2,4.2,0,0,0-.7979,2.836v8.7285h-7.6758V56.2305h7.3018v1.834a7.0944,7.0944,0,0,1,2.5137-1.63,8.6075,8.6075,0,0,1,3.0908-.543A7.4956,7.4956,0,0,1,188.2109,57.9629Z" transform="translate(-3.9789 -3.0264)"/><path class="cls-1" d="M214.7188,56.2305V71.1064q0,5.2985-2.9376,7.9649t-8.372,2.666a21.6558,21.6558,0,0,1-5.1963-.5947,13.1057,13.1057,0,0,1-4.1094-1.7149l2.5811-5.23a8.8908,8.8908,0,0,0,2.7509,1.3242,10.8938,10.8938,0,0,0,3.1924.51,4.8083,4.8083,0,0,0,3.3623-.9853,3.761,3.761,0,0,0,1.0537-2.8867V71.82a6.4717,6.4717,0,0,1-5.1289,1.97,9.2186,9.2186,0,0,1-4.4326-1.1045,8.3574,8.3574,0,0,1-3.2773-3.1582,9.0272,9.0272,0,0,1-1.2227-4.7041,8.9367,8.9367,0,0,1,1.2227-4.6865,8.404,8.404,0,0,1,3.2773-3.1416,9.23,9.23,0,0,1,4.4326-1.1035q3.8028,0,5.502,2.4453V56.2305Zm-8.5079,10.75a2.8024,2.8024,0,0,0,.9-2.1573,2.749,2.749,0,0,0-.9-2.14,3.2378,3.2378,0,0,0-2.2578-.8154,3.2864,3.2864,0,0,0-2.2929.8154,2.7513,2.7513,0,0,0-.8995,2.14,2.7793,2.7793,0,0,0,.917,2.1573,3.2591,3.2591,0,0,0,2.2754.832A3.197,3.197,0,0,0,206.2109,66.9805Z" transform="translate(-3.9789 -3.0264)"/><path d="M93.97,87.1826H88.8018l-1.0191,2.3926H85.8042l4.6514-10.3369h1.89l4.666,10.3369H95.0039Zm-.6352-1.5058-1.9493-4.5186-1.934,4.5186Z" transform="translate(-3.9789 -3.0264)"/><path d="M99.4927,89.1621a3.7968,3.7968,0,0,1-1.521-1.44,4.253,4.253,0,0,1,0-4.1709,3.8225,3.8225,0,0,1,1.5137-1.4326,4.6077,4.6077,0,0,1,2.2075-.5166,4.25,4.25,0,0,1,2.0454.4726,3.0637,3.0637,0,0,1,1.3213,1.3584l-1.4175.8262a2.2617,2.2617,0,0,0-.8491-.8193,2.4768,2.4768,0,0,0-2.8277.3984,2.7211,2.7211,0,0,0-.0073,3.5889,2.4887,2.4887,0,0,0,2.835.3984,2.2474,2.2474,0,0,0,.8491-.8193l1.4175.8271a3.1882,3.1882,0,0,1-1.3365,1.3652,4.1611,4.1611,0,0,1-2.03.4805A4.6207,4.6207,0,0,1,99.4927,89.1621Z" transform="translate(-3.9789 -3.0264)"/><path d="M112.332,82.4355a3.2257,3.2257,0,0,1,.9229,2.5176v4.6221h-1.7427v-.96a2.1453,2.1453,0,0,1-.9668.79,3.7757,3.7757,0,0,1-1.5137.2734,3.721,3.721,0,0,1-1.5507-.3027,2.3947,2.3947,0,0,1-1.0259-.8418,2.1332,2.1332,0,0,1-.3618-1.2188,2.0879,2.0879,0,0,1,.79-1.705,3.9249,3.9249,0,0,1,2.4878-.6426h2.0381V84.85a1.6162,1.6162,0,0,0-.4946-1.2695,2.1386,2.1386,0,0,0-1.4693-.4434,4.2451,4.2451,0,0,0-1.3071.2071,3.2087,3.2087,0,0,0-1.0855.5761l-.7231-1.3437a4.4575,4.4575,0,0,1,1.4912-.7237,6.6154,6.6154,0,0,1,1.8457-.2509A3.8479,3.8479,0,0,1,112.332,82.4355Zm-1.6836,5.5821a1.7312,1.7312,0,0,0,.7608-.9082v-.916h-1.9048q-1.5953,0-1.5952,1.0488a.94.94,0,0,0,.3989.7969,1.8248,1.8248,0,0,0,1.1074.2959A2.38,2.38,0,0,0,110.6484,88.0176Z" transform="translate(-3.9789 -3.0264)"/><path d="M123.4141,78.6182v10.957h-1.772V88.5566a2.8612,2.8612,0,0,1-1.1294.8418,3.8245,3.8245,0,0,1-1.4839.28,4.1535,4.1535,0,0,1-2.0454-.5019,3.6063,3.6063,0,0,1-1.4248-1.4248,4.5869,4.5869,0,0,1,0-4.2315,3.6182,3.6182,0,0,1,1.4248-1.417,4.1535,4.1535,0,0,1,2.0454-.5019,3.7384,3.7384,0,0,1,1.4321.2656,2.8743,2.8743,0,0,1,1.1075.7969V78.6182Zm-2.9678,9.1777a2.1862,2.1862,0,0,0,.8418-.8643,2.8779,2.8779,0,0,0,0-2.5986,2.1925,2.1925,0,0,0-.8418-.8642,2.5136,2.5136,0,0,0-2.3921,0,2.1891,2.1891,0,0,0-.8418.8642,2.877,2.877,0,0,0,0,2.5986,2.1829,2.1829,0,0,0,.8418.8643,2.5143,2.5143,0,0,0,2.3921,0Z" transform="translate(-3.9789 -3.0264)"/><path d="M133.2192,86.2236h-6.1875a2.1441,2.1441,0,0,0,.8492,1.38,2.782,2.782,0,0,0,1.7055.51,2.8728,2.8728,0,0,0,2.1411-.8565l.99,1.1368a3.3248,3.3248,0,0,1-1.3438.96,5.3243,5.3243,0,0,1-4.12-.1914,3.7253,3.7253,0,0,1-1.5283-1.44,4.0639,4.0639,0,0,1-.5391-2.0889,4.1251,4.1251,0,0,1,.5244-2.0752,3.7149,3.7149,0,0,1,1.4546-1.4394,4.24,4.24,0,0,1,2.0967-.5166,4.1448,4.1448,0,0,1,2.06.5088,3.6112,3.6112,0,0,1,1.4175,1.4326,4.3427,4.3427,0,0,1,.5092,2.1338C133.2485,85.8047,133.2388,85.9873,133.2192,86.2236Zm-5.4565-2.6211a2.208,2.208,0,0,0-.7456,1.3946h4.4746a2.1556,2.1556,0,0,0-2.23-1.919A2.2266,2.2266,0,0,0,127.7627,83.6025Z" transform="translate(-3.9789 -3.0264)"/><path d="M147.3359,82.4648a3.5042,3.5042,0,0,1,.8711,2.5918v4.5186h-1.8457V85.293a2.3073,2.3073,0,0,0-.458-1.5576,1.65,1.65,0,0,0-1.3139-.5245,1.9255,1.9255,0,0,0-1.4917.6123,2.5021,2.5021,0,0,0-.5611,1.75v4.002h-1.8457V85.293a2.3073,2.3073,0,0,0-.458-1.5576,1.65,1.65,0,0,0-1.314-.5245,1.9323,1.9323,0,0,0-1.499.6055,2.516,2.516,0,0,0-.5537,1.7568v4.002h-1.8457V81.69h1.7573v1.0048a2.8725,2.8725,0,0,1,1.1075-.8125,3.7681,3.7681,0,0,1,1.4765-.28,3.5654,3.5654,0,0,1,1.5728.332,2.56,2.56,0,0,1,1.0854.9814,3.2908,3.2908,0,0,1,1.2549-.9668,4.075,4.075,0,0,1,1.6982-.3466A3.2112,3.2112,0,0,1,147.3359,82.4648Z" transform="translate(-3.9789 -3.0264)"/><path d="M157.8057,81.69l-3.6919,8.52a3.9712,3.9712,0,0,1-1.2549,1.81,3.0127,3.0127,0,0,1-1.7871.5235,3.6707,3.6707,0,0,1-1.1665-.1914,2.5769,2.5769,0,0,1-.9449-.5323l.7383-1.3584a2.005,2.005,0,0,0,.6275.4,1.9352,1.9352,0,0,0,.7309.1474,1.2583,1.2583,0,0,0,.8047-.251,2.2236,2.2236,0,0,0,.5835-.8418l.1328-.3105-3.44-7.915h1.9194l2.481,5.833,2.4956-5.833Z" transform="translate(-3.9789 -3.0264)"/><polygon class="cls-1" points="43.282 0 0 43.282 43.282 86.475 43.282 72.097 14.213 43.238 43.282 14.505 43.282 0 43.282 0"/><polygon class="cls-2" points="28.8 14.505 72.082 57.787 28.8 101.068 28.8 86.545 57.576 57.787 28.8 28.843 28.8 14.505 28.8 14.505"/><polyline class="cls-1" points="0 43.368 43.282 86.562 43.282 72.184 14.213 43.325"/><polygon class="cls-3" points="28.776 14.505 35.997 21.679 39.201 18.53 28.776 14.505 28.776 14.505"/><polygon class="cls-4" points="36.015 79.311 43.282 86.562 32.698 82.614 36.015 79.311 36.015 79.311"/></svg>